HIERARCHY
ROOT Hips
{
	OFFSET 0.000000 0.000000 0.000000 
	CHANNELS 6 Xposition Yposition Zposition Zrotation Yrotation Xrotation
	JOINT LeftUpLeg
	{
		OFFSET 1.363060 -1.794630 0.839290 
		CHANNELS 3 Zrotation Yrotation Xrotation
		JOINT LeftLeg
		{
			OFFSET 2.448110 -6.726130 0.000000 
			CHANNELS 3 Zrotation Yrotation Xrotation
			JOINT LeftFoot
			{
				OFFSET 2.562200 -7.039590 0.000000 
				CHANNELS 3 Zrotation Yrotation Xrotation
				JOINT LeftToeBase
				{
					OFFSET 0.157640 -0.433110 2.322550 
					CHANNELS 3 Zrotation Yrotation Xrotation
					End Site
					{
						OFFSET 0.000000 0.000000 0.000000 
					}
				}
			}
		}
	}
	JOINT RightUpLeg
	{
		OFFSET -1.305520 -1.794630 0.839290 
		CHANNELS 3 Zrotation Yrotation Xrotation
		JOINT RightLeg
		{
			OFFSET -2.542530 -6.985550 0.000000 
			CHANNELS 3 Zrotation Yrotation Xrotation
			JOINT RightFoot
			{
				OFFSET -2.568260 -7.056230 0.000000 
				CHANNELS 3 Zrotation Yrotation Xrotation
				JOINT RightToeBase
				{
					OFFSET -0.164730 -0.452590 2.363150 
					CHANNELS 3 Zrotation Yrotation Xrotation
					End Site
					{
						OFFSET 0.000000 0.000000 0.000000 
					}
				}
			}
		}
	}
	JOINT Spine
	{
		OFFSET 0.028270 2.035590 -0.193380 
		CHANNELS 3 Zrotation Yrotation Xrotation
		JOINT Spine1
		{
			OFFSET 0.056720 2.048850 -0.042750 
			CHANNELS 3 Zrotation Yrotation Xrotation
			JOINT Neck1
			{
				OFFSET -0.054170 1.746240 0.172020 
				CHANNELS 3 Zrotation Yrotation Xrotation
				JOINT Head
				{
					OFFSET 0.104070 1.761360 -0.123970 
					CHANNELS 3 Zrotation Yrotation Xrotation
					End Site
					{
						OFFSET 0.000000 0.000000 0.000000 
					}
				}
			}
			JOINT LeftArm
			{
				OFFSET 3.362410 1.200890 -0.311210 
				CHANNELS 3 Zrotation Yrotation Xrotation
				JOINT LeftForeArm
				{
					OFFSET 4.983000 -0.000000 -0.000000 
					CHANNELS 3 Zrotation Yrotation Xrotation
					JOINT LeftHand
					{
						OFFSET 3.483560 -0.000000 -0.000000 
						CHANNELS 3 Zrotation Yrotation Xrotation
						JOINT LeftHandIndex1
						{
							OFFSET 0.715260 -0.000000 -0.000000 
							CHANNELS 3 Zrotation Yrotation Xrotation
							End Site
							{
								OFFSET 0.000000 0.000000 0.000000 
							}
						}
					}
				}
			}
			JOINT RightArm
			{
				OFFSET -3.136600 1.374050 -0.404650 
				CHANNELS 3 Zrotation Yrotation Xrotation
				JOINT RightForeArm
				{
					OFFSET -5.241900 -0.000000 -0.000000 
					CHANNELS 3 Zrotation Yrotation Xrotation
					JOINT RightHand
					{
						OFFSET -3.444170 -0.000000 -0.000000 
						CHANNELS 3 Zrotation Yrotation Xrotation
						JOINT RightHandIndex1
						{
							OFFSET -0.622530 -0.000000 -0.000000 
							CHANNELS 3 Zrotation Yrotation Xrotation
							End Site
							{
								OFFSET 0.000000 0.000000 0.000000 
							}
						}
					}
				}
			}
		}
	}
}
MOTION
Frames: 10
Frame Time: 0.041667
0.209250 18.262732 0.367339 -5.520461 -2.380972 17.166891 -10.064813 -25.183153 -16.154593 -0.523204 4.634809 17.829543 -5.414967 20.187393 -3.300632 0.349100 -3.796200 -10.504000 21.230818 21.897799 -12.720720 1.738654 -0.816349 8.741637 3.042141 -15.287235 -1.551365 -0.912500 6.086700 -17.036100 16.125310 2.496712 -10.109644 -2.153552 0.569554 -5.872538 -6.814932 0.498879 16.554033 -2.844700 0.233700 4.241100 -83.212647 7.560386 26.050472 13.781123 -17.897274 -1.655720 1.238239 1.149057 24.187426 -7.125000 0.000000 0.000000 76.147676 -10.717467 12.824094 -22.033892 25.777554 -3.606895 -0.498694 0.885594 32.308407 7.125000 0.000000 0.000000 
0.208649 18.262832 0.368941 -5.546054 -2.421154 17.097083 -10.057131 -25.168112 -16.084648 -0.520038 4.638485 17.837545 -5.434876 20.250915 -3.251151 0.373000 -3.922800 -10.859700 21.266917 21.903442 -12.577917 1.749912 -0.770761 8.637490 3.046135 -15.297448 -1.506267 -0.899400 6.044000 -16.912100 16.127094 2.506912 -9.989202 -2.178134 0.583486 -5.920156 -6.804100 0.522819 16.646008 -2.839500 0.246300 4.263600 -83.289019 7.601922 25.841104 13.752305 -17.854061 -1.646835 1.232165 1.167054 24.124662 -7.125000 0.000000 0.000000 76.226780 -10.752105 12.673878 -21.957327 25.686028 -3.576131 -0.482581 0.884035 32.411518 7.125000 0.000000 0.000000 
0.207848 18.263533 0.369342 -5.580651 -2.396434 17.114038 -10.011235 -25.196438 -16.107108 -0.514525 4.645725 17.845309 -5.448885 20.300609 -3.164230 0.400700 -4.064300 -11.257700 21.305210 21.875816 -12.529978 1.763585 -0.726304 8.525648 3.049635 -15.314616 -1.514864 -0.865600 5.932500 -16.588800 16.157046 2.516561 -10.024704 -2.202209 0.583425 -5.906911 -6.810520 0.534197 16.593271 -2.839800 0.252200 4.243200 -83.376386 7.589777 25.610750 13.648241 -17.691706 -1.616935 1.228230 1.198054 24.133845 -7.125000 0.000000 0.000000 76.296228 -10.826027 12.605411 -21.881197 25.588902 -3.546232 -0.473916 0.883622 32.354788 7.125000 0.000000 0.000000 
0.206547 18.265335 0.370142 -5.584211 -2.412917 17.153424 -10.001564 -25.149718 -16.170342 -0.511887 4.656135 17.863160 -5.439866 20.275479 -3.147142 0.393600 -4.028500 -11.156800 21.304596 21.887544 -12.512187 1.773103 -0.693189 8.440001 3.047636 -15.304140 -1.503125 -0.869700 5.946200 -16.628400 16.072761 2.543750 -10.068967 -2.201961 0.599063 -5.879527 -6.856936 0.515439 16.516265 -2.857400 0.241700 4.219800 -83.427873 7.539640 25.394953 13.515511 -17.481713 -1.579197 1.238459 1.214002 24.209113 -7.125000 0.000000 0.000000 76.379321 -10.909831 12.569749 -21.825674 25.516536 -3.526819 -0.479949 0.885660 32.227507 7.125000 0.000000 0.000000 
0.204645 18.266236 0.371144 -5.562255 -2.448471 17.162921 -10.032619 -25.081142 -16.196676 -0.510105 4.660511 17.869616 -5.438716 20.277061 -3.090508 0.393300 -4.027000 -11.152700 21.278555 21.914080 -12.501984 1.777030 -0.679387 8.408135 3.041025 -15.267057 -1.537372 -0.864400 5.928400 -16.576800 15.989039 2.536652 -9.977197 -2.186705 0.608310 -5.862862 -6.930471 0.517874 16.536251 -2.879200 0.239400 4.231200 -83.487194 7.518226 25.119436 13.462460 -17.393654 -1.562584 1.233160 1.184395 24.311187 -7.125000 0.000000 0.000000 76.448198 -10.905939 12.539949 -21.730329 25.401864 -3.492755 -0.485735 0.879669 32.217311 7.125000 0.000000 0.000000 
0.203043 18.265435 0.371044 -5.558440 -2.467924 17.149587 -10.036918 -25.052221 -16.196576 -0.511935 4.657647 17.861860 -5.445279 20.297423 -3.099126 0.406200 -4.091500 -11.334300 21.274093 21.934925 -12.508221 1.775013 -0.684682 8.428249 3.036402 -15.241521 -1.574701 -0.855100 5.897400 -16.487000 15.977774 2.511738 -9.815203 -2.176253 0.609445 -5.865789 -7.035873 0.545348 16.573441 -2.907100 0.247700 4.251200 -83.539173 7.490662 24.911891 13.450872 -17.371143 -1.557353 1.201957 1.141904 24.355304 -7.125000 0.000000 0.000000 76.510510 -10.877802 12.450142 -21.641960 25.298374 -3.460103 -0.484457 0.872406 32.323786 7.125000 0.000000 0.000000 
0.202142 18.263733 0.371044 -5.526006 -2.474829 17.189078 -10.031275 -25.119219 -16.198244 -0.519809 4.646784 17.845188 -5.427536 20.232127 -3.264399 0.353700 -3.821000 -10.573500 21.238604 21.952453 -12.561852 1.770283 -0.703632 8.470869 3.033397 -15.229152 -1.596544 -0.845100 5.863600 -16.389200 15.896770 2.523142 -9.881712 -2.161476 0.615479 -5.834126 -7.069650 0.543868 16.525864 -2.915700 0.245600 4.234700 -83.568220 7.505606 24.913350 13.427708 -17.330879 -1.550696 1.186176 1.132738 24.216988 -7.125000 0.000000 0.000000 76.616234 -10.904960 12.226179 -21.567424 25.206355 -3.431506 -0.477617 0.869108 32.591970 7.125000 0.000000 0.000000 
0.202242 18.263633 0.371344 -5.521166 -2.446751 17.170151 -10.028390 -25.109621 -16.194868 -0.520142 4.643807 17.837517 -5.412548 20.180102 -3.218161 0.365400 -3.883000 -10.747600 21.251455 21.920610 -12.553269 1.767290 -0.708606 8.485158 3.036193 -15.240816 -1.523603 -0.890100 6.013700 -16.824100 15.853059 2.522045 -9.813459 -2.174935 0.622237 -5.840050 -7.106647 0.531757 16.531163 -2.925900 0.237400 4.237000 -83.615355 7.480697 24.874295 13.386069 -17.267649 -1.539632 1.192676 1.130884 24.217934 -7.125000 0.000000 0.000000 76.699526 -10.876665 11.983348 -21.440453 25.059605 -3.389202 -0.477085 0.880992 32.928618 7.125000 0.000000 0.000000 
0.202142 18.263833 0.372245 -5.507351 -2.393988 17.139226 -10.039390 -25.153533 -16.163219 -0.518445 4.637925 17.827161 -5.428592 20.233197 -3.164632 0.393700 -4.029100 -11.158500 21.240905 21.867691 -12.554127 1.768720 -0.710056 8.494677 3.024118 -15.177536 -1.632425 -0.813200 5.754400 -16.073500 15.884257 2.489041 -9.668144 -2.187429 0.616151 -5.845575 -7.064031 0.530828 16.479552 -2.909000 0.236800 4.229100 -83.686999 7.450208 24.772698 13.363508 -17.234713 -1.533431 1.204322 1.117086 24.346590 -7.125000 0.000000 0.000000 76.714385 -10.832585 11.942732 -21.298106 24.893040 -3.342524 -0.484641 0.889479 33.048784 7.125000 0.000000 0.000000 
0.200640 18.263933 0.372045 -5.572367 -2.365891 17.152669 -9.969524 -25.127194 -16.204089 -0.518130 4.641513 17.823206 -5.425272 20.219219 -3.121551 0.385900 -3.989300 -11.046600 21.316030 21.858572 -12.547573 1.769925 -0.700370 8.475489 3.024059 -15.182186 -1.596755 -0.830600 5.814400 -16.246900 16.024957 2.506449 -9.673442 -2.216915 0.617616 -5.832366 -7.063803 0.540545 16.328921 -2.905100 0.241200 4.187600 -83.777134 7.436535 24.634456 13.320778 -17.170136 -1.522023 1.222278 1.108291 24.569787 -7.125000 0.000000 0.000000 76.748291 -10.821542 11.918620 -21.162529 24.730765 -3.297000 -0.491982 0.891173 33.099934 7.125000 0.000000 0.000000 
